{
	"asset":{
		"version":"2.0",
		"generator":"Created using the official Cinema 4D glTF Exporter 1.000x284978"
	},
	"scenes":[{
		"nodes":[0]
	}],
	"nodes":[{
		"name":"Default",
		"mesh":0
	}],
	"meshes":[{
		"name":"Default",
		"primitives":[{
			"attributes":{
				"POSITION":1,
				"NORMAL":2
			},
			"indices":0,
			"material":0
		}]
	}],
	"accessors":[{
		"bufferView":0,
		"type":"SCALAR",
		"componentType":5123,
		"count":58452,
		"min":[0],
		"byteOffset":0,
		"max":[10002]
	},
	{
		"bufferView":1,
		"type":"VEC3",
		"componentType":5126,
		"count":10003,
		"min":[-98.98423767089844,
		0.17540933191776277,
		-15.139504432678223],
		"byteOffset":0,
		"max":[99.46134185791016,
		160.13821411132813,
		20.896434783935548]
	},
	{
		"bufferView":1,
		"type":"VEC3",
		"componentType":5126,
		"count":10003,
		"min":[-0.9997645616531372,
		-0.9999463558197022,
		-0.9999507069587708],
		"byteOffset":12,
		"max":[0.9997645020484924,
		0.9999150037765503,
		0.9999756217002869]
	}],
	"bufferViews":[{
		"target":34963,
		"buffer":0,
		"byteOffset":0,
		"byteLength":116904
	},
	{
		"target":34962,
		"buffer":0,
		"byteOffset":116904,
		"byteLength":240072,
		"byteStride":24
	}],
	"buffers":[{
		"uri":"data:application/octet-stream;base64,",
		"byteLength":356976
	}],
	"materials":[{
		"pbrMetallicRoughness":{
			"baseColorFactor":[1.0,
			1.0,
			1.0,
			1.0],
			"metallicFactor":0.0,
			"roughnessFactor":0.5
		},
		"emissiveFactor":[0.0,
		0.0,
		0.0],
		"name":"Default",
		"alphaMode":"OPAQUE",
		"doubleSided":false
	}]
}